Coordinates
version=1
nRows=14
nColumns=63
inDegrees=yes

Units are S.I. units (second, meters, Newtons, ...)
If the header above contains a line with 'inDegrees', this indicates whether rotational values are in degrees (yes) or radians (no).

endheader
time	pelvis_tilt	pelvis_list	pelvis_rotation	pelvis_tx	pelvis_ty	pelvis_tz	hip_flexion_r	hip_adduction_r	hip_rotation_r	knee_angle_r	knee_angle_r_beta	ankle_angle_r	subtalar_angle_r	mtp_angle_r	hip_flexion_l	hip_adduction_l	hip_rotation_l	knee_angle_l	knee_angle_l_beta	ankle_angle_l	subtalar_angle_l	mtp_angle_l	L5_S1_Flex_Ext	L5_S1_Lat_Bending	L5_S1_axial_rotation	L4_L5_Flex_Ext	L4_L5_Lat_Bending	L4_L5_axial_rotation	L3_L4_Flex_Ext	L3_L4_Lat_Bending	L3_L4_axial_rotation	L2_L3_Flex_Ext	L2_L3_Lat_Bending	L2_L3_axial_rotation	L1_L2_Flex_Ext	L1_L2_Lat_Bending	L1_L2_axial_rotation	L1_T12_Flex_Ext	L1_T12_Lat_Bending	L1_T12_axial_rotation	Abs_r3	Abs_r2	Abs_r1	Abs_t1	Abs_t2	neck_flexion	neck_bending	neck_rotation	arm_flex_r	arm_add_r	arm_rot_r	elbow_flex_r	pro_sup_r	wrist_flex_r	wrist_dev_r	arm_flex_l	arm_add_l	arm_rot_l	elbow_flex_l	pro_sup_l	wrist_flex_l	wrist_dev_l
5.644068	2.293584	-8.837694	106.649694	0.175642	0.448661	0.563978	-5.164351	2.581503	-7.652613	0.828685	0.014463	-19.776321	-18.636826	0.000000	-7.506155	-2.832449	-7.085442	0.870820	0.015199	2.737582	12.049246	0.000000	0.252663	0.353425	0.306356	0.469220	0.470056	0.325503	0.415100	0.859319	0.325503	0.288768	0.859319	0.268061	0.234623	0.720705	0.248914	0.144372	0.547456	0.229767	1.804746	3.998019	1.703860	0.000000	0.000000	28.646037	-1.013706	-5.385737	105.858616	0.042323	134.647182	1.340267	1.335878	0.061464	-16.630781	113.719009	-8.075366	162.497530	0.392747	1.669659	-21.678297	-13.895316
5.661017	2.069875	-8.462656	106.093639	0.176153	0.447430	0.563799	-5.575575	2.424795	-7.135857	1.010402	0.017635	-18.923051	-18.623966	0.000000	-7.892821	-2.630196	-7.372887	1.242331	0.021683	3.279679	11.326021	0.000000	0.194153	0.359665	0.364464	0.360562	0.478355	0.387243	0.318975	0.874490	0.387243	0.221898	0.874490	0.318906	0.180291	0.733430	0.296127	0.110939	0.557122	0.273348	1.386819	4.068607	2.027042	0.000000	0.000000	28.079983	-1.413684	-4.869217	105.386307	-0.137367	135.703289	1.215679	1.290174	-2.772873	-17.552543	112.996721	-8.158023	165.221884	0.354042	1.652793	-31.750678	-14.303765
5.677966	1.773114	-7.941274	105.549606	0.176914	0.446428	0.564014	-6.130998	2.247551	-6.724855	1.213285	0.021176	-18.026944	-18.596084	0.000000	-8.390927	-2.408999	-7.597252	1.665401	0.029067	3.749976	10.532880	0.000000	0.109585	0.359756	0.443700	0.203511	0.478476	0.471431	0.180038	0.874712	0.471431	0.125245	0.874712	0.388238	0.101761	0.733615	0.360506	0.062617	0.557263	0.332775	0.782757	4.069637	2.467727	0.000000	0.000000	27.288991	-1.657874	-4.584246	104.952796	-0.480297	136.849535	1.053890	1.224947	-5.799552	-18.763161	112.277131	-8.073706	167.514569	0.309854	1.607204	-41.593765	-15.130661
5.694915	1.382056	-7.339129	105.072876	0.177996	0.445587	0.564443	-6.787116	2.024974	-6.463881	1.430254	0.024963	-17.078800	-18.561687	0.000000	-8.947550	-2.146468	-7.673304	2.129283	0.037163	4.121791	9.667370	0.000000	0.006960	0.345316	0.519437	0.012925	0.459270	0.551901	0.011434	0.839600	0.551901	0.007954	0.839600	0.454507	0.006463	0.704168	0.422042	0.003977	0.534894	0.389577	0.049713	3.906279	2.888950	0.000000	0.000000	26.402321	-1.704394	-4.487960	104.498682	-0.893771	138.263472	0.865769	1.158745	-9.766739	-20.140073	111.808730	-8.051610	168.848338	0.264462	1.544747	-47.317551	-16.329798
5.711864	0.958647	-6.628744	104.663270	0.179271	0.445036	0.565235	-7.516589	1.806531	-6.371900	1.699726	0.029666	-16.151366	-18.508915	0.000000	-9.557204	-1.904221	-7.651546	2.645731	0.046177	4.431770	8.812811	0.000000	-0.111654	0.327534	0.601226	-0.207353	0.435620	0.638802	-0.183437	0.796366	0.638802	-0.127610	0.796366	0.526072	-0.103682	0.667907	0.488496	-0.063799	0.507350	0.450919	-0.797535	3.705128	3.343836	0.000000	0.000000	25.377993	-1.672422	-4.522463	104.026713	-1.377146	140.237095	0.663104	1.089224	-14.692802	-21.366578	111.310395	-7.921905	170.096549	0.221258	1.472960	-52.908011	-17.847984
5.728814	0.514393	-5.816098	104.336207	0.180700	0.444802	0.566398	-8.308754	1.602415	-6.473688	2.014416	0.035158	-15.302677	-18.459930	0.000000	-10.213373	-1.691037	-7.532476	3.202742	0.055898	4.703415	7.990078	0.000000	-0.242100	0.308565	0.684483	-0.449604	0.410391	0.727263	-0.397746	0.750244	0.727263	-0.276696	0.750244	0.598922	-0.224814	0.629225	0.556142	-0.138336	0.477966	0.513362	-1.729297	3.490544	3.806887	0.000000	0.000000	24.150845	-1.595548	-4.609768	103.512387	-1.885107	142.669980	0.467155	1.026765	-20.395328	-22.377954	110.747850	-7.686092	171.237887	0.185223	1.403142	-58.047243	-19.518639
5.745763	0.057095	-4.896905	104.100221	0.182259	0.444908	0.567954	-9.169451	1.424609	-6.755400	2.361530	0.041216	-14.545486	-18.418833	0.000000	-10.923308	-1.515644	-7.323770	3.784205	0.066047	4.978993	7.232936	0.000000	-0.383717	0.290108	0.766668	-0.712601	0.385844	0.814585	-0.630409	0.705370	0.814585	-0.438550	0.705370	0.670835	-0.356320	0.591589	0.622918	-0.219256	0.449378	0.575001	-2.740854	3.281765	4.263979	0.000000	0.000000	22.679706	-1.478217	-4.733197	102.939479	-2.393178	145.435967	0.306075	0.974362	-26.668593	-23.210527	110.102423	-7.325454	172.311476	0.156773	1.340182	-62.581249	-21.083218
5.762712	-0.396589	-3.866677	103.948268	0.183901	0.445313	0.569993	-10.092835	1.288034	-7.149645	2.750142	0.047999	-13.813592	-18.377380	0.000000	-11.675951	-1.394499	-7.064797	4.410201	0.076973	5.343971	6.587379	0.000000	-0.538382	0.276119	0.845258	-0.999830	0.367238	0.898087	-0.884508	0.671356	0.898087	-0.615317	0.671356	0.739601	-0.499942	0.563062	0.686772	-0.307632	0.427708	0.633944	-3.845611	3.123514	4.701074	0.000000	0.000000	21.020802	-1.353511	-4.808911	102.329855	-2.870970	148.501845	0.196880	0.932953	-33.285407	-23.874524	109.384823	-6.853167	173.390947	0.134261	1.297230	-66.293473	-22.397699
5.779661	-0.839064	-2.753045	103.849360	0.185618	0.445929	0.572564	-11.043072	1.179548	-7.552070	3.196199	0.055784	-13.030473	-18.336983	0.000000	-12.436591	-1.316598	-6.829103	5.096997	0.088959	5.846443	6.098106	0.000000	-0.702662	0.266080	0.918754	-1.304913	0.353886	0.976176	-1.154403	0.646947	0.976176	-0.803072	0.646947	0.803910	-0.652492	0.542590	0.746488	-0.401501	0.412158	0.689066	-5.019042	3.009950	5.109835	0.000000	0.000000	19.224284	-1.212101	-4.865735	101.677442	-3.289214	151.845751	0.130612	0.898038	-40.050525	-24.375054	108.591443	-6.279012	174.733323	0.114813	1.240293	-69.254271	-23.411951
5.796610	-1.283326	-1.542276	103.839220	0.187316	0.446730	0.575607	-12.085354	1.106983	-7.978909	3.629692	0.063350	-12.208161	-18.314169	0.000000	-13.249881	-1.287361	-6.667468	5.799899	0.101227	6.508193	5.872732	0.000000	-0.877651	0.259555	0.973548	-1.629886	0.345208	1.034394	-1.441893	0.631082	1.034394	-1.003068	0.631082	0.851854	-0.814987	0.529284	0.791007	-0.501490	0.402050	0.730161	-6.268975	2.936137	5.414579	0.000000	0.000000	17.298194	-1.036403	-4.874724	100.950338	-3.608235	155.276641	0.096851	0.871751	-46.753231	-24.706594	107.707921	-5.624736	176.268944	0.097880	1.186676	-71.332295	-24.066307
5.813559	-1.716186	-0.268166	103.819838	0.189031	0.447579	0.579152	-13.148497	1.036208	-8.290000	4.114684	0.071815	-11.257796	-18.307318	0.000000	-14.080934	-1.268271	-6.592657	6.535471	0.114065	7.330956	5.751543	0.000000	-1.058820	0.256322	1.023223	-1.966334	0.340908	1.087174	-1.739535	0.623220	1.087174	-1.210125	0.623220	0.895320	-0.983220	0.522691	0.831368	-0.605010	0.397042	0.767417	-7.563045	2.899561	5.690857	0.000000	0.000000	15.318159	-0.886635	-4.876287	100.154215	-3.837524	158.792947	0.081885	0.848497	-53.191565	-24.876155	106.736946	-4.902172	177.943192	0.083841	1.140126	-72.420297	-24.425865
5.830508	-2.128321	1.056192	103.809300	0.190727	0.448392	0.583187	-14.227202	0.978039	-8.500584	4.642131	0.081020	-10.163827	-18.313862	0.000000	-14.905729	-1.286251	-6.667811	7.330526	0.127942	8.354474	5.839470	0.000000	-1.243139	0.256619	1.065264	-2.308634	0.341304	1.131843	-2.042353	0.623944	1.131843	-1.420784	0.623944	0.932106	-1.154379	0.523298	0.865527	-0.710330	0.397503	0.798948	-8.879619	2.902928	5.924680	0.000000	0.000000	13.337639	-0.769086	-4.892682	99.283761	-3.994614	162.351277	0.072477	0.826574	-59.171386	-24.867054	105.668068	-4.112912	179.721797	0.071953	1.088209	-72.635563	-24.550522
5.847458	-2.527798	2.408220	103.768790	0.192411	0.449119	0.587676	-15.278423	0.903304	-8.556191	5.257363	0.091758	-8.914707	-18.343712	0.000000	-15.710156	-1.289602	-6.792621	8.173717	0.142658	9.489892	5.872509	0.000000	-1.426907	0.258674	1.109292	-2.649910	0.344037	1.178623	-2.344266	0.628941	1.178623	-1.630812	0.628941	0.970631	-1.325026	0.527489	0.901300	-0.815335	0.400687	0.831969	-10.192257	2.926176	6.169552	0.000000	0.000000	11.393709	-0.721414	-4.934801	98.330750	-4.103277	165.889199	0.065521	0.805204	-64.491911	-24.714016	104.475702	-3.258162	181.463322	0.062619	1.028428	-72.105781	-24.577617
5.864407	-2.914484	3.760806	103.714626	0.194074	0.449740	0.592594	-16.276348	0.814345	-8.466273	5.959013	0.104004	-7.521408	-18.390443	0.000000	-16.459952	-1.281849	-6.960429	9.079651	0.158470	10.726119	5.835463	0.000000	-1.605851	0.262431	1.155600	-2.982226	0.349033	1.227825	-2.638253	0.638075	1.227825	-1.835327	0.638075	1.011150	-1.491193	0.535149	0.938925	-0.917583	0.406506	0.866700	-11.470435	2.968671	6.427103	0.000000	0.000000	9.510829	-0.758230	-5.015479	97.289505	-4.177201	169.308355	0.059847	0.783873	-68.947054	-24.527766	103.131495	-2.351871	183.071637	0.055713	0.959380	-71.103560	-24.669710
